<svg width="76" height="76" viewBox="0 0 76 76" fill="none" xmlns="http://www.w3.org/2000/svg" role="img" aria-label="Wingify">
<path d="M64.079 42.8518C64.079 46.0865 61.4568 48.7087 58.2221 48.7087C54.9875 48.7087 52.3653 46.0865 52.3653 42.8518C52.3653 39.6172 54.9875 36.995 58.2221 36.995C61.4568 36.995 64.079 39.6172 64.079 42.8518Z" fill="#EEFF6D"/>
<path fill-rule="evenodd" clip-rule="evenodd" d="M38.1993 39.4537L35.1847 15.6324H56.0822L44.8986 41.6636C51.8619 32.0715 67.0719 32.7847 66.3243 44.9341C69.7482 47.5274 70.4577 51.6573 68.2804 55.6568C67.2086 53.4485 64.0566 53.1327 60.3722 55.6568C37.8423 71.0923 30.6939 43.6591 30.6779 43.5972L6.47864 60.3589V38.1422H28.6261L6.54211 15.6324H29.3575L38.1993 39.4537ZM62.8126 42.0494C62.3873 39.4597 59.9497 37.6996 57.3575 38.1099C54.7444 38.5238 52.9669 40.9847 53.3956 43.5953C53.8244 46.2061 56.296 47.9697 58.9044 47.5259C61.4916 47.0858 63.2377 44.6389 62.8126 42.0494Z" fill="#1E2022"/>
<path d="M62.0045 43.323C62.0045 44.915 60.6988 46.2055 59.0881 46.2055C57.4774 46.2055 56.1716 44.915 56.1716 43.323C56.1716 41.731 57.4774 40.4405 59.0881 40.4405C60.6988 40.4405 62.0045 41.731 62.0045 43.323Z" fill="#1E2022"/>
</svg>
