<svg preserveAspectRatio="none" overflow="visible" style="display: block;" width="18" height="20" viewBox="0 0 18 20" fill="none" xmlns="http://www.w3.org/2000/svg">
<path id="Icon" fill-rule="evenodd" clip-rule="evenodd" d="M4 5C4 2.23858 6.23858 0 9 0C11.7614 0 14 2.23858 14 5V11C14 13.7614 11.7614 16 9 16C6.23858 16 4 13.7614 4 11V5ZM9 2C7.34315 2 6 3.34315 6 5V11C6 12.6569 7.34315 14 9 14C10.6569 14 12 12.6569 12 11V5C12 3.34315 10.6569 2 9 2ZM1 9C1.55228 9 2 9.44771 2 10V11C2 14.866 5.13401 18 9 18C12.866 18 16 14.866 16 11V10C16 9.44771 16.4477 9 17 9C17.5523 9 18 9.44771 18 10V11C18 15.9706 13.9706 20 9 20C4.02944 20 0 15.9706 0 11V10C0 9.44771 0.447715 9 1 9Z" fill="var(--fill-0, #717680)"/>
</svg>
